<svg width="30" height="30" viewBox="0 0 30 30" fill="none" xmlns="http://www.w3.org/2000/svg">
<path d="M29.8096 18.7187C29.7999 16.4878 29.793 14.8759 28.6957 13.4578C27.4527 11.8523 25.5356 11.5803 23.9814 11.534C24.2432 10.4123 24.3188 9.16873 24.1978 7.82443C24.1647 3.34747 20.8335 0.129459 16.2102 0.00187621L16.1436 0L9.07211 0.00562863L8.99612 0.00531593C6.24591 0.00531593 4.07201 0.826471 2.53445 2.44564C1.5829 3.44723 0.318959 5.19679 0.185123 8.02581L0.179494 19.4332C0.165735 19.6486 0.187311 19.8663 0.184497 20.0898C0.184497 23.3354 0.703895 25.6716 2.32588 27.398C3.94661 29.1244 6.34316 29.9997 9.44798 29.9997C9.51521 29.9997 9.58307 29.9994 9.65092 29.9984H20.4538H20.4795C23.2494 29.9753 25.59 29.061 27.2482 27.3545C28.9034 25.6513 29.7946 23.2244 29.8249 20.3372C29.8246 20.3372 29.8114 19.1749 29.8096 18.7187ZM9.64561 6.08424L15.6876 6.07705C17.1117 6.09956 18.248 7.37508 18.2249 8.79912C18.2024 10.2091 17.0526 11.2379 15.6476 11.2379C15.6338 11.2379 9.56399 11.2404 9.56399 11.2404C8.13995 11.2176 7.00421 10.0449 7.02704 8.6215C7.04956 7.19746 8.21969 6.07048 9.64561 6.08424ZM21.0023 23.0561H8.91857C7.49484 23.0561 6.34003 21.902 6.34003 20.4776C6.34003 19.0536 7.49484 17.8991 8.91857 17.8991H21.0026C22.427 17.8991 23.5812 19.0536 23.5812 20.4776C23.5812 21.902 22.4267 23.0561 21.0023 23.0561Z" fill="#1CFF68"/>
</svg>
