<svg width="47" height="56" viewBox="0 0 47 56" fill="none" xmlns="http://www.w3.org/2000/svg">
<path d="M21.0736 0H30.8551V41.9429C25.8449 42.8295 22.1565 43.1783 18.1657 43.1783C6.21887 43.1667 0 38.1734 0 28.5833C0 19.3434 6.59652 13.3466 16.8187 13.3466C18.4049 13.3466 19.6133 13.4634 21.0736 13.8133V0ZM21.4164 21.3719C20.2708 21.0218 19.3267 20.9052 18.1181 20.9052C13.1708 20.9052 10.3132 23.7285 10.3132 28.6763C10.3132 33.4935 13.0451 36.1534 18.0553 36.1534C19.1378 36.1534 20.0191 36.0964 21.4164 35.9214V21.3719Z" fill="#1CFF68"/>
<path d="M46.8507 14.4727V35.4729C46.8507 42.705 46.2717 46.1828 44.5721 49.1813C42.9859 52.064 40.8962 53.8817 36.5783 55.8895L27.5018 51.8879C31.8197 50.0105 33.9094 48.3517 35.2439 45.8201C36.6411 43.2312 37.0817 40.2328 37.0817 32.3461V14.4729H46.8507V14.4727ZM36.096 0H45.8775V9.29836H36.096V0Z" fill="#1CFF68"/>
</svg>
