<svg width="30" height="30" viewBox="0 0 30 30" fill="none" xmlns="http://www.w3.org/2000/svg">
<g clip-path="url(#clip0)">
<path d="M28.6364 0H17.7273C16.9741 0 16.3636 0.610547 16.3636 1.36365C16.3636 2.11676 16.9741 2.7273 17.7273 2.7273H25.3443L11.3085 16.7631C10.7761 17.2955 10.7761 18.159 11.3085 18.6915C11.5747 18.9577 11.9237 19.0909 12.2727 19.0909C12.6217 19.0909 12.9707 18.9577 13.2369 18.6915L27.2728 4.65574V12.2728C27.2728 13.0259 27.8833 13.6364 28.6364 13.6364C29.3895 13.6364 30.0001 13.0259 30.0001 12.2728V1.36365C30 0.610547 29.3895 0 28.6364 0Z" fill="#1CFF68"/>
<path d="M23.1818 13.6363C22.4287 13.6363 21.8181 14.2468 21.8181 14.9999V27.2727H2.72725V8.18171H15C15.7531 8.18171 16.3637 7.57117 16.3637 6.81806C16.3637 6.06496 15.7531 5.45447 15 5.45447H1.36365C0.610547 5.45447 0 6.06501 0 6.81812V28.6363C0 29.3894 0.610547 29.9999 1.36365 29.9999H23.1819C23.935 29.9999 24.5455 29.3894 24.5455 28.6363V14.9999C24.5455 14.2468 23.9349 13.6363 23.1818 13.6363Z" fill="#1CFF68"/>
</g>
<defs>
<clipPath id="clip0">
<rect width="30" height="30" fill="white"/>
</clipPath>
</defs>
</svg>
