<svg width="64" height="61" viewBox="0 0 64 61" fill="none" xmlns="http://www.w3.org/2000/svg">
<g clip-path="url(#clip0)">
<path d="M32 1.27081C14.32 1.27081 0 14.6908 0 31.2421C0 44.4868 9.168 55.7184 21.88 59.6783C23.48 59.9604 24.0667 59.0327 24.0667 58.2372C24.0667 57.5255 24.04 55.6396 24.0267 53.1412C15.1253 54.9483 13.248 49.1202 13.248 49.1202C11.792 45.661 9.688 44.7359 9.688 44.7359C6.78933 42.8779 9.912 42.916 9.912 42.916C13.1253 43.1244 14.8133 46.0042 14.8133 46.0042C17.6667 50.5868 22.304 49.2626 24.1333 48.4975C24.4213 46.5582 25.2453 45.2391 26.16 44.4893C19.0533 43.7395 11.584 41.1623 11.584 29.679C11.584 26.4079 12.824 23.7341 14.8773 21.6372C14.5173 20.8798 13.4373 17.8323 15.1573 13.7046C15.1573 13.7046 17.8373 12.9015 23.9573 16.7775C26.5173 16.1116 29.2373 15.7812 31.9573 15.7659C34.6773 15.7812 37.3973 16.1116 39.9573 16.7775C46.0373 12.9015 48.7173 13.7046 48.7173 13.7046C50.4373 17.8323 49.3573 20.8798 49.0373 21.6372C51.0773 23.7341 52.3173 26.4079 52.3173 29.679C52.3173 41.1928 44.8373 43.7268 37.7173 44.4639C38.8373 45.3636 39.8773 47.2013 39.8773 50.0098C39.8773 54.0206 39.8373 57.2434 39.8373 58.2169C39.8373 59.0022 40.3973 59.9401 42.0373 59.6402C54.84 55.7057 64 44.4664 64 31.2421C64 14.6908 49.672 1.27081 32 1.27081Z" fill="#1CFF68"/>
<path d="M32 1.27075C14.32 1.27075 0 14.6908 0 31.2421C0 44.4867 9.168 55.7183 21.88 59.6783C23.48 59.9604 24.0667 59.0327 24.0667 58.2371C24.0667 57.5255 24.04 55.6396 24.0267 53.1411C15.1253 54.9482 13.248 49.1202 13.248 49.1202C11.792 45.661 9.688 44.7358 9.688 44.7358C6.78933 42.8778 9.912 42.916 9.912 42.916C13.1253 43.1244 14.8133 46.0041 14.8133 46.0041C17.6667 50.5867 22.304 49.2625 24.1333 48.4975C24.4213 46.5582 25.2453 45.239 26.16 44.4893C19.0533 43.7395 11.584 41.1622 11.584 29.679C11.584 26.4078 12.824 23.734 14.8773 21.6371C14.5173 20.8797 13.4373 17.8323 15.1573 13.7046C15.1573 13.7046 17.8373 12.9014 23.9573 16.7775C26.5173 16.1115 29.2373 15.7811 31.9573 15.7659C34.6773 15.7811 37.3973 16.1115 39.9573 16.7775C46.0373 12.9014 48.7173 13.7046 48.7173 13.7046C50.4373 17.8323 49.3573 20.8797 49.0373 21.6371C51.0773 23.734 52.3173 26.4078 52.3173 29.679C52.3173 41.1927 44.8373 43.7268 37.7173 44.4638C38.8373 45.3636 39.8773 47.2012 39.8773 50.0098C39.8773 54.0205 39.8373 57.2433 39.8373 58.2168C39.8373 59.0022 40.3973 59.9401 42.0373 59.6401C54.84 55.7056 64 44.4664 64 31.2421C64 14.6908 49.672 1.27075 32 1.27075Z" fill="#1CFF68"/>
</g>
<defs>
<clipPath id="clip0">
<rect width="64" height="61" fill="white"/>
</clipPath>
</defs>
</svg>
