<svg width="65" height="54" viewBox="0 0 65 54" fill="none" xmlns="http://www.w3.org/2000/svg">
<path d="M3.80859 0L7.8458 47.2607L32.5253 54L57.2048 47.2607L61.242 0H3.80859Z" fill="#1CFF68"/>
<path d="M61.242 0L57.2048 47.2607L32.5253 54V0H61.242Z" fill="#1CFF68"/>
<path d="M50.4639 14.3438H22.2421L22.9274 22.2539H49.7785L48.1405 41.4068L32.5253 45.7417L16.9101 41.4068L16.377 35.0156H23.9941L24.1464 36.7559L32.5253 39.0655L40.9042 36.7559L41.5896 28.582H15.8057L14.0536 8.01562H50.997L50.4639 14.3438Z" fill="black"/>
<path d="M49.7785 22.2539L48.1405 41.4068L32.5253 45.7417V39.0655L40.9042 36.7559L41.5896 28.582H32.5253V22.2539H49.7785Z" fill="black"/>
<path d="M50.997 8.01562L50.4639 14.3438H32.5253V8.01562H50.997Z" fill="black"/>
</svg>
