<svg width="55" height="55" viewBox="0 0 55 55" fill="none" xmlns="http://www.w3.org/2000/svg">
<path d="M0.859375 0.429688V54.1406H54.5703V0.429688H0.859375ZM29.2699 46.197C28.4771 47.8079 26.9638 48.8662 25.2102 49.3771C22.5156 49.9959 19.9384 49.6431 18.0211 48.4924C16.738 47.7052 15.736 46.4935 15.0558 45.0974L19.1464 42.5923C19.1821 42.6074 19.2895 42.8016 19.433 43.0525C19.9547 43.9265 20.4046 44.5453 21.2889 44.9797C22.1577 45.2762 24.0651 45.4657 24.8016 43.9368C25.2514 43.1591 25.1084 40.6592 25.1084 37.8933C25.1079 33.547 25.1281 29.2188 25.1281 24.9219H30.1593C30.1593 29.6484 30.1851 34.1249 30.1593 38.7372C30.1701 41.5645 30.4154 44.0851 29.2699 46.197ZM50.1415 44.7756C48.3927 50.7577 38.6422 50.9519 34.7458 46.9996C33.9225 46.0694 33.4065 45.5834 32.9154 44.5096C34.986 43.3185 34.986 43.3185 37.0008 42.1528C38.0952 43.835 39.1071 44.7601 40.9277 45.1387C43.3976 45.4403 45.8825 44.5917 45.3252 41.9684C44.7524 39.826 40.2677 39.3048 37.2157 37.0137C34.1172 34.9327 33.391 29.8762 35.9373 26.987C36.786 25.9183 38.2332 25.1208 39.7517 24.7375L41.3364 24.5326C44.379 24.4711 46.2808 25.2746 47.6768 26.8336C48.0653 27.2271 48.3824 27.6517 48.9753 28.5716C47.3546 29.6046 47.3597 29.5947 45.0381 31.0978C44.5423 30.0296 43.7194 29.3593 42.8497 29.0679C41.4996 28.6589 39.7972 29.1036 39.444 30.5302C39.3216 30.9697 39.3469 31.3788 39.5416 32.105C40.0886 33.3523 41.9242 33.8946 43.5707 34.6513C48.3106 36.5737 49.9112 38.6349 50.3048 41.0884C50.6838 43.2008 50.2133 44.5711 50.1415 44.7756Z" fill="#1CFF68"/>
</svg>
