<svg width="59" height="58" viewBox="0 0 59 58" fill="none" xmlns="http://www.w3.org/2000/svg">
<path d="M22.738 28.0937H36.1785C39.9199 28.0937 42.8672 24.9817 42.8672 21.2883V8.69229C42.8672 5.10717 39.8102 2.41379 36.1582 1.81567C33.8471 1.43731 31.459 1.26512 29.158 1.276C26.8579 1.28642 24.7275 1.479 22.7947 1.81567C17.0999 2.80393 16.1328 4.87472 16.1328 8.69229V13.5937H29.5V15.4062H10.9592C7.04865 15.4062 3.62389 17.7208 2.55313 22.1175C1.31736 27.1562 1.26251 30.237 2.55313 35.4983C3.50958 39.4142 5.79352 42.1406 9.70458 42.1406H14.2891V36.2282C14.2891 31.8615 18.1738 28.0937 22.738 28.0937ZM21.8908 10.372C20.496 10.372 19.3658 9.24873 19.3658 7.85945C19.3658 6.46428 20.4956 5.33056 21.8908 5.33056C23.2806 5.33056 24.4163 6.46428 24.4163 7.85945C24.4159 9.24873 23.2801 10.372 21.8908 10.372ZM56.3639 22.1175C55.3968 18.2895 53.5508 15.4062 49.6347 15.4062H44.7109V21.2883C44.7109 25.8422 40.6574 29.4531 36.1785 29.4531H22.738C19.0561 29.4531 16.1328 32.7727 16.1328 36.3977V48.9946C16.1328 52.5788 19.2418 54.6876 22.7989 55.7162C27.0589 56.9474 31.093 57.1699 36.1896 55.7162C39.577 54.7515 42.8672 52.8113 42.8672 48.9946V43.9531H29.5V42.1406H49.6347C53.5453 42.1406 55.0032 39.5234 56.3639 35.4978C57.7684 31.354 57.708 27.4326 56.3639 22.1175ZM37.0253 47.3139C38.4205 47.3139 39.5507 48.4372 39.5507 49.8274C39.5507 51.2212 38.421 52.3554 37.0253 52.3554C35.6355 52.3554 34.5002 51.2217 34.5002 49.8274C34.5002 48.4372 35.6355 47.3139 37.0253 47.3139Z" fill="#1CFF68"/>
</svg>
