<svg width="79" height="63" viewBox="0 0 79 63" fill="none" xmlns="http://www.w3.org/2000/svg">
<path d="M0.232681 31.4315C0.232681 36.6948 6.02258 41.6079 15.1504 44.3775C13.3276 52.5228 14.8239 59.0883 19.8211 61.6463C24.9574 64.2759 32.6096 62.4557 39.8727 56.82C46.9524 62.2281 54.1075 64.3564 59.1003 61.791C64.2321 59.154 65.7925 52.1435 63.9195 43.7436C73.4268 40.9536 78.7449 36.7641 78.7449 31.4315C78.7449 26.2905 72.9445 21.8429 63.9395 19.0912C65.9561 10.3443 64.2475 3.93832 59.0433 1.27452C54.026 -1.29369 46.7877 0.944728 39.6039 6.49421C32.1301 0.60398 24.9633 -1.19426 19.7646 1.47694C14.752 4.05255 13.3218 10.7374 15.1504 19.0334C6.33055 21.7629 0.232681 26.3113 0.232681 31.4315Z" fill="black"/>
<path d="M62.0325 21.8237C61.2903 21.5978 60.5419 21.3884 59.7879 21.1959C59.9129 20.7449 60.0286 20.2919 60.1347 19.8371C61.8338 12.5159 60.7229 6.61802 56.9292 4.67652C53.2919 2.81446 47.3431 4.75596 41.335 9.39686C40.743 9.85521 40.1642 10.3268 39.599 10.8111C39.2205 10.489 38.8353 10.1733 38.4436 9.86389C32.147 4.90113 25.8356 2.81008 22.046 4.75733C18.4121 6.62459 17.3358 12.1694 18.8654 19.1076C19.0176 19.7947 19.1894 20.4783 19.3807 21.1576C18.4877 21.3827 17.6252 21.6227 16.8001 21.878C9.4182 24.1624 4.7037 27.743 4.7037 31.4567C4.7037 35.2926 9.76443 39.14 17.4537 41.4726C18.0771 41.6609 18.7058 41.8353 19.3391 41.9958C19.1334 42.7277 18.9507 43.4645 18.7914 44.2055C17.333 51.0231 18.472 56.4365 22.0963 58.2923C25.8397 60.2083 32.1224 58.2388 38.2403 53.4919C38.7238 53.1167 39.2092 52.7187 39.6952 52.3015C40.3074 52.8258 40.9359 53.3348 41.5801 53.828C47.506 58.3544 53.3586 60.1822 56.9798 58.3216C60.7198 56.3998 61.935 50.5843 60.3569 43.5089C60.2366 42.9685 60.0961 42.4165 59.9388 41.8545C60.38 41.7389 60.813 41.6194 61.2354 41.4951C69.2289 39.1444 74.4294 35.3438 74.4294 31.4567C74.4294 27.7296 69.5631 24.1249 62.0325 21.8237Z" fill="#1CFF68"/>
<path d="M60.2985 38.9855C59.9174 39.0975 59.5262 39.2057 59.1275 39.3106C58.2449 36.8309 57.0538 34.1939 55.5967 31.4699C56.9875 28.8102 58.1323 26.2072 58.9902 23.7433C59.7033 23.9269 60.3957 24.12 61.0629 24.324C67.5153 26.2954 71.451 29.2106 71.451 31.4567C71.451 33.8494 67.2003 36.9555 60.2988 38.9855H60.2985ZM57.4349 44.0225C58.1326 47.1511 58.2323 49.9798 57.77 52.1911C57.3547 54.1781 56.5197 55.5027 55.4871 56.0333C53.2897 57.1624 48.5904 55.6948 43.5229 51.8238C42.9418 51.3801 42.3564 50.9062 41.7695 50.4049C43.7342 48.4974 45.6977 46.2798 47.614 43.8173C50.985 43.5519 54.1695 43.1178 57.0575 42.5253C57.1995 43.0348 57.326 43.5341 57.4349 44.0225ZM28.4746 55.8383C26.3278 56.5113 24.618 56.5305 23.5845 56.0015C21.385 54.8758 20.4709 50.5288 21.7179 44.6985C21.8662 44.0095 22.036 43.3243 22.2271 42.6436C25.083 43.2043 28.2444 43.6078 31.6234 43.851C33.5523 46.2606 35.5726 48.4755 37.6086 50.4151C37.1759 50.7866 36.7329 51.1487 36.2802 51.5009C33.5748 53.6001 30.864 55.0891 28.4749 55.8383H28.4746ZM18.417 38.9707C15.0171 37.9392 12.2093 36.5986 10.2847 35.1359C8.55541 33.8211 7.68213 32.516 7.68213 31.4567C7.68213 29.2033 11.4675 26.3285 17.7807 24.3747C18.5731 24.1305 19.3734 23.907 20.1806 23.7044C21.0532 26.2236 22.1978 28.8576 23.579 31.5211C22.1799 34.2244 21.019 36.9002 20.1383 39.449C19.5602 39.3021 18.9863 39.1426 18.417 38.9707ZM21.7886 18.5998C20.478 12.6551 21.3482 8.17083 23.5382 7.0456C25.8711 5.84696 31.029 7.55617 36.4656 11.841C36.8131 12.1149 37.1621 12.4017 37.5117 12.6983C35.4862 14.6292 33.4844 16.8273 31.5721 19.223C28.2929 19.4928 25.1537 19.9261 22.2678 20.5065C22.09 19.8745 21.9303 19.2387 21.7886 18.5995V18.5998ZM51.865 25.1921C51.1834 24.1469 50.4765 23.115 49.7448 22.0968C51.9696 22.3461 54.101 22.6775 56.1025 23.0832C55.5017 24.7927 54.7527 26.5803 53.8708 28.4127C53.2264 27.3274 52.5577 26.2537 51.865 25.1921ZM39.5999 14.5878C40.9737 15.9089 42.3496 17.3842 43.7031 18.9846C40.9576 18.8695 38.2076 18.8689 35.4621 18.983C36.8168 17.3973 38.2045 15.9242 39.5999 14.5878ZM27.256 25.2101C26.572 26.2633 25.9158 27.3305 25.2879 28.4108C24.4205 26.5846 23.6783 24.7891 23.0723 23.0553C25.0617 22.66 27.1832 22.3371 29.3936 22.0919C28.6537 23.1163 27.9409 24.156 27.256 25.2101ZM29.4571 41.0103C27.1736 40.784 25.02 40.4775 23.0312 40.0932C23.6469 38.3287 24.4054 36.4945 25.2913 34.6292C25.9218 35.7103 26.5809 36.7782 27.2681 37.8318C27.9692 38.9066 28.6991 39.9664 29.4571 41.0103ZM39.6823 48.5125C38.2705 47.1602 36.8625 45.6646 35.4871 44.0559C36.822 44.1025 38.1832 44.126 39.5665 44.126C40.9879 44.126 42.3928 44.0978 43.7756 44.043C42.4178 45.681 41.0468 47.1788 39.6823 48.5125ZM53.8992 34.5341C54.8311 36.4198 55.6168 38.244 56.2407 39.9787C54.2189 40.3882 52.0363 40.718 49.7364 40.9629C50.4734 39.9258 51.1871 38.8757 51.8771 37.8134C52.5784 36.7338 53.2526 35.6404 53.8992 34.5341ZM49.2967 36.4926C48.2405 38.1213 47.1249 39.7191 45.9517 41.2834C43.883 41.4146 41.7451 41.4822 39.5665 41.4822C37.3969 41.4822 35.2862 41.4222 33.2536 41.3053C32.05 39.7446 30.9133 38.1441 29.8459 36.5071C28.7836 34.8789 27.7913 33.2154 26.8712 31.5203C27.789 29.8247 28.7783 28.1603 29.837 26.5307V26.5312C30.8954 24.9013 32.0231 23.3076 33.2178 21.7536C35.2915 21.6145 37.4176 21.5416 39.5669 21.5416C41.7257 21.5416 43.8546 21.615 45.9276 21.7553C47.1102 23.3069 48.2308 24.895 49.2871 26.5167C50.3495 28.1427 51.352 29.7989 52.293 31.4828C51.3617 33.1838 50.3624 34.8548 49.297 36.4926H49.2967ZM55.4415 6.96699C57.7762 8.16234 58.6844 12.9824 57.2174 19.3035C57.1212 19.7153 57.0167 20.1255 56.9038 20.5339C54.0112 19.9414 50.8699 19.5004 47.581 19.2265C45.665 16.8048 43.6799 14.6029 41.6871 12.697C42.2093 12.2501 42.7439 11.8148 43.2905 11.3915C48.4382 7.41483 53.2493 5.84476 55.4415 6.96699Z" fill="black"/>
<path d="M39.5665 25.93C43.0054 25.93 45.7928 28.4045 45.7928 31.4567C45.7928 34.5092 43.0054 36.9837 39.5665 36.9837C36.128 36.9837 33.3403 34.5092 33.3403 31.4567C33.3403 28.4045 36.128 25.93 39.5665 25.93Z" fill="#1CFF68"/>
</svg>
