<svg width="30" height="30" viewBox="0 0 30 30" fill="none" xmlns="http://www.w3.org/2000/svg">
<path d="M0.59121 24.4937C3.36871 26.2562 6.60121 27.1875 9.93871 27.1875C14.8262 27.1875 19.305 25.31 22.5512 21.9012C25.6575 18.6388 27.3662 14.255 27.2812 9.80625C28.4587 8.79875 29.8437 6.875 29.8437 5C29.8437 4.28125 29.0637 3.825 28.4312 4.19125C27.325 4.84125 26.3162 5.01125 25.2787 4.72C23.16 2.655 20.0062 2.22 17.3487 3.6525C15.0262 4.9025 13.735 7.19 13.8512 9.69C9.92746 9.21125 6.30246 7.24375 3.77496 4.18625C3.35996 3.6875 2.57246 3.74625 2.24246 4.31125C1.02496 6.39625 1.03746 8.8125 2.09621 10.7638C1.59246 10.8525 1.28121 11.2762 1.28121 11.735C1.28121 13.6962 2.16371 15.4988 3.58496 16.7288C3.31996 16.9838 3.23246 17.3625 3.34496 17.7C3.96996 19.5775 5.38496 21.045 7.15371 21.78C5.22996 22.6987 3.10246 23.005 1.20871 22.7725C0.22871 22.64 -0.25504 23.9575 0.59121 24.4937ZM10.195 22.1012C10.8962 21.5625 10.5237 20.44 9.64371 20.4212C8.09371 20.3888 6.68246 19.625 5.80371 18.4237C6.22746 18.3962 6.66621 18.3312 7.08371 18.2187C8.03496 17.9612 7.98996 16.5887 7.02371 16.395C5.26996 16.0425 3.89371 14.765 3.37746 13.12C3.84871 13.2363 4.32871 13.3013 4.80746 13.31C5.75621 13.315 6.11496 12.0988 5.34121 11.59C3.59746 10.4413 2.85371 8.4125 3.34621 6.505C6.39121 9.59 10.5225 11.4487 14.8925 11.6587C15.5187 11.6975 15.9887 11.1088 15.8512 10.5125C15.2575 7.93875 16.695 6.135 18.2387 5.30375C19.7662 4.47875 22.2187 4.22125 24.0987 6.19375C24.6575 6.7825 26.5425 6.805 27.5012 6.58125C27.0712 7.39125 26.41 8.16 25.7912 8.5925C25.5275 8.7775 25.3762 9.085 25.3925 9.40625C25.5937 13.5125 24.0637 17.595 21.195 20.6063C18.305 23.64 14.3087 25.3112 9.93996 25.3112C8.20246 25.3112 6.49871 25.0287 4.88871 24.4837C6.81371 24.1112 8.64246 23.2962 10.195 22.1012Z" fill="#1CFF68"/>
</svg>
