<svg width="63" height="60" viewBox="0 0 63 60" fill="none" xmlns="http://www.w3.org/2000/svg">
<path d="M63 30C63 13.4275 48.9011 0 31.5 0C14.0989 0 0 13.4275 0 30C0 46.5725 14.0989 60 31.5 60C48.9011 60 63 46.5725 63 30ZM38.1938 11.2475C39.312 9.4075 41.79 8.7675 43.7194 9.8325C45.6619 10.895 46.3234 13.2575 45.2051 15.1075C44.0895 16.945 41.6089 17.5875 39.6795 16.5225C37.7344 15.4475 37.0729 13.09 38.1938 11.2475ZM36.0596 14.005C36.6188 17.43 40.3515 19.485 43.7456 18.24C46.6804 21.01 48.5704 24.7625 48.8512 28.945L43.008 29.0175V29.02C42.3229 21.52 33.9518 16.7775 26.6359 20.0175L23.7772 15.1425C29.862 12.275 35.3981 13.8375 36.0596 14.005ZM11.1011 33.8575C8.86462 33.8575 7.05075 32.1275 7.05075 30C7.05075 27.8725 8.86725 26.1425 11.1011 26.1425C13.3376 26.1425 15.1515 27.8725 15.1515 30C15.1515 32.1275 13.3376 33.8575 11.1011 33.8575ZM14.6711 34.235C17.5009 32.07 17.514 27.9575 14.6711 25.78C15.7631 21.8125 18.3671 18.4375 21.8452 16.21L24.8561 21C18.3146 25.3925 18.3146 34.6075 24.8561 39L21.8452 43.79C18.3671 41.575 15.7736 38.19 14.6711 34.235ZM43.7167 50.165C41.7743 51.23 39.3094 50.6 38.1911 48.75C37.0755 46.9 37.7344 44.54 39.6769 43.475C41.6089 42.4125 44.0842 43.04 45.2025 44.89C46.3181 46.74 45.6619 49.1 43.7167 50.165ZM43.7561 41.76V41.7575C40.3646 40.5125 36.6292 42.555 36.0728 45.9925C35.4112 46.1625 29.862 47.7225 23.7904 44.855L26.649 39.98C33.8888 43.185 42.3229 38.565 43.0211 30.98L48.8775 31.065C48.5809 35.24 46.6778 38.9875 43.7561 41.76Z" fill="#1CFF68"/>
</svg>
