<svg width="41" height="43" viewBox="0 0 41 43" fill="none" xmlns="http://www.w3.org/2000/svg">
<path d="M36.1953 3.35938H34.2734V0H31.0703V3.35938H9.92969V0H6.72656V3.35938H4.80469C2.15538 3.35938 0 5.6199 0 8.39844V37.9609C0 40.7395 2.15538 43 4.80469 43H36.1953C38.8446 43 41 40.7395 41 37.9609V8.39844C41 5.6199 38.8446 3.35938 36.1953 3.35938ZM37.7969 37.9609C37.7969 38.8871 37.0784 39.6406 36.1953 39.6406H4.80469C3.92159 39.6406 3.20312 38.8871 3.20312 37.9609V15.7891H37.7969V37.9609ZM37.7969 12.4297H3.20312V8.39844C3.20312 7.47226 3.92159 6.71875 4.80469 6.71875H6.72656V10.0781H9.92969V6.71875H31.0703V10.0781H34.2734V6.71875H36.1953C37.0784 6.71875 37.7969 7.47226 37.7969 8.39844V12.4297Z" fill="#1CFF68"/>
<path d="M9.28906 19.3164H6.08594V22.6758H9.28906V19.3164Z" fill="#1CFF68"/>
<path d="M15.6953 19.3164H12.4922V22.6758H15.6953V19.3164Z" fill="#1CFF68"/>
<path d="M22.1016 19.3164H18.8984V22.6758H22.1016V19.3164Z" fill="#1CFF68"/>
<path d="M28.5078 19.3164H25.3047V22.6758H28.5078V19.3164Z" fill="#1CFF68"/>
<path d="M34.9141 19.3164H31.7109V22.6758H34.9141V19.3164Z" fill="#1CFF68"/>
<path d="M9.28906 26.0352H6.08594V29.3945H9.28906V26.0352Z" fill="#1CFF68"/>
<path d="M15.6953 26.0352H12.4922V29.3945H15.6953V26.0352Z" fill="#1CFF68"/>
<path d="M22.1016 26.0352H18.8984V29.3945H22.1016V26.0352Z" fill="#1CFF68"/>
<path d="M28.5078 26.0352H25.3047V29.3945H28.5078V26.0352Z" fill="#1CFF68"/>
<path d="M9.28906 32.7539H6.08594V36.1133H9.28906V32.7539Z" fill="#1CFF68"/>
<path d="M15.6953 32.7539H12.4922V36.1133H15.6953V32.7539Z" fill="#1CFF68"/>
<path d="M22.1016 32.7539H18.8984V36.1133H22.1016V32.7539Z" fill="#1CFF68"/>
<path d="M28.5078 32.7539H25.3047V36.1133H28.5078V32.7539Z" fill="#1CFF68"/>
<path d="M34.9141 26.0352H31.7109V29.3945H34.9141V26.0352Z" fill="#1CFF68"/>
</svg>
