<svg width="44" height="49" viewBox="0 0 44 49" fill="none" xmlns="http://www.w3.org/2000/svg">
<path d="M40.1328 7.27344H3.86719C1.73052 7.27344 0 9.21257 0 11.5801V37.4199C0 39.8015 1.74324 41.7266 3.86719 41.7266H40.1328C42.2516 41.7266 44 39.8096 44 37.4199V11.5801C44 9.21679 42.2764 7.27344 40.1328 7.27344ZM39.5912 10.1445C38.8011 11.0197 25.204 26.0823 24.7345 26.6023C24.0041 27.4158 23.033 27.8637 22 27.8637C20.967 27.8637 19.9959 27.4157 19.2631 26.5996C18.9473 26.2498 5.50026 11.3536 4.40877 10.1445H39.5912ZM2.57812 36.8356V12.1663L13.7189 24.5077L2.57812 36.8356ZM4.4104 38.8555L15.5468 26.5324L17.4425 28.6325C18.6599 29.9882 20.2784 30.7348 22 30.7348C23.7216 30.7348 25.3401 29.9882 26.5551 28.6351L28.4532 26.5324L39.5896 38.8555H4.4104ZM41.4219 36.8356L30.2811 24.5077L41.4219 12.1663V36.8356Z" fill="#1CFF68"/>
</svg>
