<svg width="50" height="48" viewBox="0 0 50 48" fill="none" xmlns="http://www.w3.org/2000/svg">
<path d="M25 0C15.3074 0 7.42188 7.57013 7.42188 16.875C7.42188 20.0188 8.329 23.0869 10.0458 25.7486L23.9994 47.3352C24.2667 47.7487 24.7376 48 25.244 48C25.2479 48 25.2518 48 25.2557 48C25.7665 47.9962 26.2384 47.7371 26.5008 47.3164L40.0987 25.5206C41.7208 22.9151 42.5781 19.9255 42.5781 16.875C42.5781 7.57013 34.6926 0 25 0ZM37.5846 24.0767L25.2219 43.8924L12.5358 24.2668C11.1068 22.0513 10.332 19.4953 10.332 16.875C10.332 9.12094 16.9229 2.79375 25 2.79375C33.0771 2.79375 39.6582 9.12094 39.6582 16.875C39.6582 19.4176 38.9345 21.9082 37.5846 24.0767Z" fill="#1CFF68"/>
<path d="M25 8.4375C20.1537 8.4375 16.2109 12.2226 16.2109 16.875C16.2109 21.4977 20.0896 25.3125 25 25.3125C29.971 25.3125 33.7891 21.4469 33.7891 16.875C33.7891 12.2226 29.8463 8.4375 25 8.4375ZM25 22.5187C21.7522 22.5187 19.1211 19.9844 19.1211 16.875C19.1211 13.7734 21.7691 11.2313 25 11.2313C28.2309 11.2313 30.8691 13.7734 30.8691 16.875C30.8691 19.939 28.2992 22.5187 25 22.5187Z" fill="#1CFF68"/>
</svg>
