<svg width="34" height="36" viewBox="0 0 34 36" fill="none" xmlns="http://www.w3.org/2000/svg">
<path d="M26.1645 35.2969H1.99266C1.25914 35.2969 0.664536 34.6673 0.664536 33.8906V2.10938C0.664536 1.3327 1.25914 0.703125 1.99266 0.703125H26.1645C26.8981 0.703125 27.4927 1.3327 27.4927 2.10938V33.8906C27.4927 34.6673 26.8981 35.2969 26.1645 35.2969Z" fill="white"/>
<path d="M14.0788 16.0312C17.0861 16.0312 19.5241 13.4499 19.5241 10.2656C19.5241 7.08136 17.0861 4.5 14.0788 4.5C11.0714 4.5 8.63346 7.08136 8.63346 10.2656C8.63346 13.4499 11.0714 16.0312 14.0788 16.0312Z" fill="#FE6663"/>
<path d="M15.8051 9.52734V9.98438C15.8051 10.994 15.0321 11.8125 14.0786 11.8125C13.125 11.8125 12.352 10.994 12.352 9.98438V9.52734C12.352 8.51773 13.125 7.69922 14.0786 7.69922C15.0321 7.69922 15.8051 8.51773 15.8051 9.52734Z" fill="#FFCDAC"/>
<path d="M14.0786 11.8125C12.3932 11.8125 10.9532 12.9211 10.371 14.4867C11.3432 15.4445 12.6459 16.0312 14.0786 16.0312C15.5113 16.0312 16.814 15.4445 17.7862 14.4867C17.2039 12.9211 15.764 11.8125 14.0786 11.8125Z" fill="#A5DDFF"/>
<path d="M28.9912 11.2915L29.3707 10.5956C29.9575 9.51948 31.2571 9.15076 32.2735 9.77204C33.2898 10.3934 33.6381 11.7694 33.0513 12.8456L24.6947 28.1711L21.0141 25.9211L24.6187 19.3103L28.9912 11.2915Z" fill="#FFBC53"/>
<path d="M32.2736 9.77202C31.2572 9.15067 29.9576 9.51939 29.3708 10.5956L28.3842 12.4049L32.0648 14.6549L33.0514 12.8456C33.6382 11.7695 33.2899 10.3934 32.2736 9.77202Z" fill="#FE6663"/>
<path d="M24.6947 28.1711L20.4258 31.5L21.0141 25.9211L24.6947 28.1711Z" fill="#9AD8FF"/>
<path d="M27.4927 28.0074C27.126 28.0074 26.8286 28.3222 26.8286 28.7106V33.8906C26.8286 34.2783 26.5307 34.5938 26.1645 34.5938H1.99267C1.6265 34.5938 1.32861 34.2783 1.32861 33.8906V2.10938C1.32861 1.72167 1.6265 1.40625 1.99267 1.40625H26.1645C26.5307 1.40625 26.8286 1.72167 26.8286 2.10938V9.75586C26.8286 10.1442 27.126 10.459 27.4927 10.459C27.8594 10.459 28.1567 10.1442 28.1567 9.75586V2.10938C28.1567 0.946266 27.263 0 26.1645 0H1.99267C0.894176 0 0.000480652 0.946266 0.000480652 2.10938V33.8906C0.000480652 35.0537 0.894176 36 1.99267 36H26.1645C27.263 36 28.1567 35.0537 28.1567 33.8906V28.7106C28.1567 28.3222 27.8594 28.0074 27.4927 28.0074Z" fill="black"/>
<path d="M20.1879 10.2656C20.1879 6.69874 17.4473 3.79688 14.0786 3.79688C10.7099 3.79688 7.9692 6.69874 7.9692 10.2656C7.9692 12.116 8.70697 13.7872 9.88715 14.9674C9.90926 14.9924 9.93277 15.0161 9.95847 15.0377C11.0456 16.0909 12.4924 16.7343 14.0785 16.7343C15.6646 16.7343 17.1114 16.0908 18.1986 15.0377C18.2242 15.0161 18.2478 14.9923 18.2699 14.9674C19.4502 13.7872 20.1879 12.116 20.1879 10.2656ZM14.0786 5.20312C16.715 5.20312 18.8598 7.47415 18.8598 10.2656C18.8598 11.3883 18.5125 12.4263 17.9262 13.2668C17.4364 12.4977 16.7577 11.8995 15.9696 11.5303C16.2824 11.1023 16.4692 10.5661 16.4692 9.98437V9.52734C16.4692 8.13157 15.3968 6.99609 14.0786 6.99609C12.7603 6.99609 11.6879 8.13157 11.6879 9.52734V9.98437C11.6879 10.5661 11.8748 11.1023 12.1875 11.5303C11.3995 11.8995 10.7207 12.4977 10.231 13.2668C9.6447 12.4263 9.29733 11.3883 9.29733 10.2656C9.29733 7.47415 11.4422 5.20312 14.0786 5.20312ZM13.0161 9.98437V9.52734C13.0161 8.90705 13.4927 8.40234 14.0786 8.40234C14.6644 8.40234 15.1411 8.90705 15.1411 9.52734V9.98437C15.1411 10.6047 14.6644 11.1094 14.0786 11.1094C13.4927 11.1094 13.0161 10.6047 13.0161 9.98437ZM11.1905 14.2968C11.7741 13.201 12.8633 12.5156 14.0786 12.5156C15.2939 12.5156 16.383 13.201 16.9666 14.2968C16.1636 14.9434 15.1629 15.3281 14.0786 15.3281C12.9942 15.3281 11.9935 14.9434 11.1905 14.2968Z" fill="black"/>
<path d="M17.6645 30.7969H14.0786C13.7119 30.7969 13.4145 31.1117 13.4145 31.5C13.4145 31.8883 13.7119 32.2031 14.0786 32.2031H17.6645C18.0312 32.2031 18.3286 31.8883 18.3286 31.5C18.3286 31.1117 18.0312 30.7969 17.6645 30.7969Z" fill="black"/>
<path d="M17.6645 26.8594H8.23483C7.86813 26.8594 7.57076 27.1742 7.57076 27.5625C7.57076 27.9508 7.86813 28.2656 8.23483 28.2656H17.6645C18.0312 28.2656 18.3286 27.9508 18.3286 27.5625C18.3286 27.1742 18.0312 26.8594 17.6645 26.8594Z" fill="black"/>
<path d="M17.6645 22.9219H8.23483C7.86813 22.9219 7.57076 23.2367 7.57076 23.625C7.57076 24.0133 7.86813 24.3281 8.23483 24.3281H17.6645C18.0312 24.3281 18.3286 24.0133 18.3286 23.625C18.3286 23.2367 18.0312 22.9219 17.6645 22.9219Z" fill="black"/>
<path d="M5.86806 19.1904C5.74461 19.0596 5.57328 18.9844 5.39797 18.9844C5.22326 18.9844 5.05193 19.0596 4.92848 19.1904C4.80496 19.3212 4.73391 19.5026 4.73391 19.6875C4.73391 19.8724 4.8049 20.0538 4.92848 20.1846C5.05266 20.3154 5.22326 20.3906 5.39797 20.3906C5.57328 20.3906 5.74395 20.3154 5.86806 20.1846C5.99158 20.0538 6.0627 19.8724 6.0627 19.6875C6.0627 19.5026 5.99164 19.3212 5.86806 19.1904Z" fill="black"/>
<path d="M5.86806 23.1279C5.74395 22.9971 5.57328 22.9219 5.39797 22.9219C5.22326 22.9219 5.05266 22.9971 4.92848 23.1279C4.80496 23.2587 4.73391 23.4401 4.73391 23.625C4.73391 23.8099 4.8049 23.9913 4.92848 24.1221C5.05266 24.2529 5.22326 24.3281 5.39797 24.3281C5.57328 24.3281 5.74395 24.2529 5.86806 24.1221C5.99158 23.9913 6.0627 23.8099 6.0627 23.625C6.0627 23.4401 5.99164 23.2587 5.86806 23.1279Z" fill="black"/>
<path d="M5.39797 26.8594C5.22326 26.8594 5.05266 26.9346 4.92848 27.0654C4.80496 27.1962 4.73391 27.3776 4.73391 27.5625C4.73391 27.7474 4.8049 27.9288 4.92848 28.0596C5.05193 28.1904 5.22326 28.2656 5.39797 28.2656C5.57328 28.2656 5.74461 28.1904 5.86806 28.0596C5.99158 27.9288 6.0627 27.7474 6.0627 27.5625C6.0627 27.3776 5.99164 27.1962 5.86806 27.0654C5.74395 26.9346 5.57328 26.8594 5.39797 26.8594Z" fill="black"/>
<path d="M17.6645 18.9844H8.23483C7.86813 18.9844 7.57076 19.2992 7.57076 19.6875C7.57076 20.0758 7.86813 20.3906 8.23483 20.3906H17.6645C18.0312 20.3906 18.3286 20.0758 18.3286 19.6875C18.3286 19.2992 18.0312 18.9844 17.6645 18.9844Z" fill="black"/>
<path d="M32.6056 9.16314C31.9605 8.76875 31.2089 8.66399 30.4892 8.86811C29.7696 9.07229 29.1681 9.56096 28.7957 10.244L20.439 25.5696C20.3932 25.6536 20.3643 25.7468 20.3541 25.8432L19.7659 31.422C19.7367 31.6996 19.8654 31.9693 20.0938 32.109C20.1969 32.172 20.3115 32.2032 20.4258 32.2032C20.5647 32.2032 20.7031 32.1572 20.8196 32.0662L25.0885 28.7374C25.1623 28.6798 25.224 28.6068 25.2698 28.5228L33.6264 13.1972C34.3954 11.7871 33.9374 9.97736 32.6056 9.16314ZM21.5614 27.0677L23.4833 28.2426L21.2542 29.9808L21.5614 27.0677ZM24.4516 27.2107L21.9212 25.6638L28.6273 13.3654L31.1577 14.9123L24.4516 27.2107ZM32.4762 12.494L31.8217 13.6945L29.2913 12.1476L29.9458 10.9472C30.1409 10.5894 30.456 10.3334 30.8329 10.2265C31.2099 10.1195 31.6036 10.1744 31.9415 10.381C32.2794 10.5876 32.5211 10.9212 32.6221 11.3203C32.7231 11.7193 32.6713 12.1362 32.4762 12.494Z" fill="black"/>
</svg>
