<svg width="40" height="40" viewBox="0 0 40 40" fill="none" xmlns="http://www.w3.org/2000/svg">
<g clip-path="url(#clip0)">
<path d="M12.3114 20.7965C12.2861 20.7965 12.2607 20.7956 12.2351 20.7941L1.22253 20.1065C0.803527 20.0806 0.42755 19.841 0.226744 19.4726C0.0262439 19.1043 0.0286853 18.6584 0.233763 18.2922C0.291442 18.1891 1.67938 15.7419 4.32251 13.6075C7.89429 10.7235 12.0465 9.78818 16.33 10.9027C16.6855 10.9952 16.9803 11.243 17.1329 11.5771C17.2855 11.9113 17.2794 12.2964 17.1161 12.6254L13.4049 20.1178C13.1979 20.5353 12.7728 20.7965 12.3114 20.7965Z" fill="#FF5B5B"/>
<path d="M21.1893 40.0001C20.9885 40.0001 20.7877 39.9506 20.6055 39.8511C20.2371 39.6503 19.9976 39.2747 19.9713 38.8557L19.2841 27.8431C19.2535 27.3527 19.52 26.8916 19.9603 26.6734L27.4527 22.9618C27.782 22.7988 28.1668 22.7927 28.501 22.9453C28.8355 23.0976 29.0829 23.3927 29.1754 23.7482C30.2902 28.0317 29.3549 32.1839 26.4706 35.7557C24.3365 38.3988 21.889 39.7864 21.7859 39.8444C21.6006 39.9482 21.395 40.0001 21.1893 40.0001Z" fill="#FF193D"/>
<path d="M38.1204 9.84833L30.2298 1.9577C29.9136 1.64154 29.4498 1.52374 29.021 1.65039C23.7387 3.21289 19.4025 5.66345 16.1319 8.93372C15.4498 9.61609 14.7946 10.3555 14.1849 11.1313C12.4118 13.3856 10.9308 16.051 9.78332 19.0537C9.05242 20.9674 8.45733 23.0176 8.01452 25.1471C7.2412 28.8669 7.1997 31.5329 7.19817 31.6446C7.19421 31.9733 7.32299 32.2901 7.55554 32.5226C7.78442 32.7515 8.09509 32.88 8.41857 32.88H8.43353C8.54553 32.8787 11.2115 32.8372 14.931 32.0639C17.0605 31.6211 19.1107 31.026 21.0248 30.2948C24.0271 29.1474 26.6925 27.6666 28.9462 25.8939C29.7226 25.2838 30.462 24.6286 31.1444 23.9462C34.415 20.6757 36.8655 16.3394 38.4277 11.0571C38.5547 10.6284 38.4366 10.1645 38.1204 9.84833Z" fill="#E1F1FA"/>
<path d="M15.7648 30.2253L9.8529 24.3134C9.4165 23.877 8.72283 23.8352 8.23699 24.2161C7.85949 24.5121 7.5003 24.8301 7.16949 25.1609C3.05602 29.2744 2.92876 35.648 2.9254 35.9171C2.92113 36.2461 3.04992 36.5629 3.28276 36.7954C3.51165 37.0246 3.82201 37.1531 4.1455 37.1531C4.15068 37.1531 4.15587 37.1531 4.16106 37.1528C4.43023 37.1494 10.8041 37.0222 14.9173 32.9087C15.2481 32.5779 15.5661 32.2187 15.8621 31.8412C16.243 31.3554 16.2012 30.6617 15.7648 30.2253Z" fill="#FFF261"/>
<path d="M9.87761 18.8094L6.2506 22.4368C6.02172 22.6653 5.89293 22.9757 5.89293 23.2995C5.89293 23.623 6.02172 23.9333 6.2506 24.1622L15.9158 33.8275C16.1444 34.0563 16.4548 34.1848 16.7785 34.1848C17.1023 34.1848 17.4124 34.0563 17.6413 33.8275L21.2683 30.2004L9.87761 18.8094Z" fill="#1B3B6B"/>
<path d="M25.7111 18.0899C24.7168 18.0899 23.7817 17.7026 23.0786 16.9995C21.6272 15.5481 21.6272 13.1866 23.0786 11.7349C23.7817 11.0318 24.7168 10.6445 25.7111 10.6445C26.7053 10.6445 27.6404 11.0318 28.3435 11.7349C29.0466 12.4381 29.4339 13.3728 29.4339 14.3674C29.4339 15.3616 29.0466 16.2964 28.3435 16.9995C27.6404 17.7026 26.7053 18.0899 25.7111 18.0899Z" fill="#06CCAB"/>
<path d="M25.7108 19.2835C24.3976 19.2835 23.1632 18.772 22.2348 17.8436C20.318 15.9268 20.318 12.8079 22.2348 10.8911C23.1632 9.96277 24.3979 9.45129 25.7108 9.45129C27.0239 9.45129 28.2584 9.96277 29.187 10.8911C30.1157 11.8198 30.6268 13.0542 30.6268 14.3674C30.6268 15.6805 30.1157 16.915 29.187 17.8436C28.2584 18.772 27.0239 19.2835 25.7108 19.2835ZM25.7108 11.8918C25.0498 11.8918 24.4278 12.1494 23.9603 12.6169C22.9953 13.5822 22.9953 15.1526 23.9603 16.1179C24.4278 16.5854 25.0498 16.843 25.7108 16.843C26.3721 16.843 26.9937 16.5854 27.4613 16.1179C27.9288 15.6503 28.1864 15.0287 28.1864 14.3674C28.1864 13.7061 27.9288 13.0844 27.4613 12.6169C26.9937 12.1494 26.3721 11.8918 25.7108 11.8918Z" fill="#1B3B6B"/>
<path d="M39.7208 0.357708C39.4879 0.124859 39.1693 -0.00606187 38.8422 0.000346826C38.6612 0.00248306 34.3475 0.0751149 29.021 1.65043L38.4277 11.0572C40.003 5.73064 40.0757 1.41697 40.0778 1.236C40.0821 0.907025 39.9533 0.590252 39.7208 0.357708Z" fill="#FF5B5B"/>
<path d="M38.1204 9.84827L34.1751 5.90295L7.55554 32.5225C7.78442 32.7514 8.09478 32.8799 8.41827 32.8799H8.43353C8.54522 32.8787 11.2112 32.8372 14.931 32.0639C17.0605 31.621 19.1104 31.026 21.0245 30.2948C24.0271 29.1473 26.6925 27.6666 28.9462 25.8938C29.7223 25.2838 30.462 24.6285 31.1441 23.9462C34.4147 20.6756 36.8652 16.3394 38.4274 11.0571C38.5547 10.6283 38.4366 10.1644 38.1204 9.84827Z" fill="#CDEBFC"/>
<path d="M15.7648 30.2252L12.8088 27.2693L3.28245 36.7954V36.7957C3.51164 37.0245 3.822 37.153 4.14549 37.153H4.16075C4.43022 37.1497 10.8038 37.0221 14.9173 32.9086C15.2481 32.5778 15.5661 32.2186 15.8618 31.8411C16.243 31.3553 16.2015 30.6616 15.7648 30.2252Z" fill="#FDBF00"/>
<path d="M15.5731 24.505L11.0831 28.9951L15.9158 33.8278C16.1444 34.0564 16.4548 34.1852 16.7786 34.1852C17.1023 34.1852 17.4124 34.0564 17.6413 33.8278L21.2683 30.2005L15.5731 24.505Z" fill="#001035"/>
<path d="M28.3435 11.735C28.3432 11.735 28.3432 11.735 28.3432 11.735L23.0786 16.9996H23.0789C23.7817 17.7027 24.7168 18.09 25.7111 18.09C26.7053 18.09 27.6404 17.7027 28.3435 16.9996C29.0466 16.2965 29.4339 15.3617 29.4339 14.3674C29.4336 13.3732 29.0466 12.4381 28.3435 11.735Z" fill="#1CADB5"/>
<path d="M29.187 10.8911L27.4613 12.6169C27.9288 13.0844 28.1864 13.7061 28.1864 14.3674C28.1864 15.0287 27.9288 15.6503 27.4613 16.1179C26.9937 16.5854 26.3721 16.843 25.7108 16.843C25.0494 16.843 24.4278 16.5854 23.9603 16.1179C23.9603 16.1179 23.9603 16.1179 23.9603 16.1176L22.2345 17.8433V17.8436C23.1631 18.772 24.3976 19.2834 25.7108 19.2834C27.0239 19.2834 28.2584 18.772 29.187 17.8436C30.1154 16.915 30.6269 15.6805 30.6269 14.3674C30.6269 13.0542 30.1154 11.8198 29.187 10.8911Z" fill="#001035"/>
<path d="M39.7205 0.3573L33.7244 6.3537L38.4277 11.0571C40.0031 5.73053 40.0757 1.41687 40.0778 1.2359C40.0821 0.906922 39.9533 0.590149 39.7205 0.3573Z" fill="#FF193D"/>
</g>
<defs>
<clipPath id="clip0">
<rect width="40" height="40" fill="white"/>
</clipPath>
</defs>
</svg>
