<svg width="51" height="46" viewBox="0 0 51 46" fill="none" xmlns="http://www.w3.org/2000/svg">
<path d="M25.1366 22.1584C28.5116 22.1584 31.4338 21.0666 33.8221 18.9124C36.2096 16.7586 37.4204 14.1233 37.4204 11.0788C37.4204 8.03538 36.21 5.39974 33.8217 3.24525C31.4334 1.09181 28.5112 0 25.1366 0C21.7611 0 18.8394 1.09181 16.4515 3.2456C14.0636 5.39939 12.8527 8.03503 12.8527 11.0788C12.8527 14.1233 14.0636 16.759 16.4515 18.9128C18.8402 21.0662 21.7623 22.1584 25.1366 22.1584ZM18.5651 5.15162C20.3974 3.49899 22.5467 2.69566 25.1366 2.69566C27.726 2.69566 29.8758 3.49899 31.7085 5.15162C33.5407 6.8046 34.4318 8.7436 34.4318 11.0788C34.4318 13.4148 33.5407 15.3534 31.7085 17.0064C29.8758 18.6594 27.726 19.4627 25.1366 19.4627C22.5475 19.4627 20.3981 18.659 18.5651 17.0064C16.7324 15.3538 15.8414 13.4148 15.8414 11.0788C15.8414 8.7436 16.7324 6.8046 18.5651 5.15162Z" fill="#1CFF68"/>
<path d="M46.63 35.3717C46.5612 34.4754 46.4219 33.4976 46.2168 32.4651C46.0098 31.4249 45.7433 30.4415 45.4242 29.5427C45.0943 28.6138 44.6464 27.6964 44.0919 26.8173C43.5172 25.9048 42.8418 25.1102 42.0838 24.4564C41.2912 23.7724 40.3208 23.2225 39.1986 22.8213C38.0804 22.4223 36.8411 22.2201 35.5154 22.2201C34.9948 22.2201 34.4913 22.4128 33.5189 22.9838C32.9205 23.3358 32.2205 23.7429 31.4392 24.1932C30.7711 24.5771 29.8661 24.9369 28.7482 25.2625C27.6576 25.5808 26.5502 25.7423 25.4568 25.7423C24.3642 25.7423 23.2568 25.5808 22.1654 25.2625C21.0487 24.9372 20.1433 24.5775 19.4764 24.1935C18.7024 23.7475 18.0021 23.3404 17.3947 22.9835C16.4231 22.4125 15.9196 22.2198 15.399 22.2198C14.0729 22.2198 12.834 22.4223 11.7162 22.8217C10.5948 23.2221 9.62398 23.772 8.8306 24.4568C8.07264 25.1109 7.39716 25.9051 6.82285 26.8173C6.26917 27.6964 5.82092 28.6134 5.49097 29.5431C5.17229 30.4419 4.90576 31.4249 4.69876 32.4651C4.49332 33.4962 4.35441 34.4743 4.28554 35.3727C4.21783 36.2512 4.18359 37.1654 4.18359 38.0891C4.18359 40.4903 5.02988 42.4342 6.69873 43.8679C8.34695 45.2826 10.5275 45.9999 13.18 45.9999H37.7368C40.3885 45.9999 42.569 45.2826 44.2176 43.8679C45.8868 42.4353 46.7331 40.4907 46.7331 38.0888C46.7327 37.1619 46.6981 36.2477 46.63 35.3717ZM42.1569 41.9148C41.0679 42.8498 39.622 43.3042 37.7364 43.3042H13.18C11.294 43.3042 9.8481 42.8498 8.7594 41.9152C7.69132 40.9981 7.17226 39.7463 7.17226 38.0891C7.17226 37.2272 7.20378 36.3761 7.26682 35.5591C7.32829 34.7575 7.45397 33.877 7.64035 32.9414C7.82439 32.0173 8.05863 31.1501 8.33723 30.365C8.60454 29.6122 8.96912 28.8668 9.42126 28.1488C9.85277 27.4644 10.3493 26.8773 10.8971 26.4042C11.4096 25.9616 12.0555 25.5995 12.8165 25.3278C13.5204 25.0765 14.3115 24.939 15.1702 24.9183C15.2749 24.9684 15.4612 25.0642 15.7632 25.2418C16.3776 25.603 17.0857 26.015 17.8686 26.4659C18.7511 26.9734 19.888 27.4318 21.2464 27.8273C22.6351 28.2323 24.0514 28.4379 25.4572 28.4379C26.863 28.4379 28.2797 28.2323 29.6676 27.8276C31.0272 27.4314 32.1637 26.9734 33.0474 26.4652C33.8485 26.0034 34.5368 25.6033 35.1512 25.2418C35.4532 25.0646 35.6395 24.9684 35.7442 24.9183C36.6033 24.939 37.3944 25.0765 38.0986 25.3278C38.8593 25.5995 39.5052 25.962 40.0177 26.4042C40.5655 26.8769 41.062 27.4641 41.4935 28.1491C41.9461 28.8668 42.311 29.6126 42.5779 30.3647C42.8569 31.1508 43.0916 32.0177 43.2752 32.941C43.4612 33.8784 43.5873 34.7593 43.6488 35.5595V35.5602C43.7122 36.374 43.7441 37.2247 43.7445 38.0891C43.7441 39.7467 43.225 40.9981 42.1569 41.9148Z" fill="#1CFF68"/>
</svg>
